<svg xmlns="http://www.w3.org/2000/svg" viewBox="0 0 558.000000 599.000000" fill="#8fc0ff"><g transform="translate(0.000000,599.000000) scale(0.100000,-0.100000)"
 stroke="none">
<path d="M2570 5741 c-44 -14 -313 -162 -367 -202 -38 -29 -55 -49 -62 -76 -7
-25 -11 -331 -11 -895 l0 -857 58 -68 c74 -86 198 -202 259 -242 44 -29 52
-31 144 -31 77 0 101 3 114 17 15 14 16 49 13 342 -4 373 1 352 -98 456 -75
78 -90 110 -90 185 0 75 15 106 93 189 98 105 92 68 92 606 0 259 -4 487 -8
508 -13 60 -70 88 -137 68z"/>
<path d="M2923 5735 c-70 -30 -68 -15 -68 -550 0 -550 -4 -522 94 -625 72 -75
94 -120 93 -195 0 -81 -19 -123 -90 -192 -101 -98 -97 -79 -97 -451 0 -387
-13 -355 146 -350 l105 3 67 53 c82 66 231 224 252 268 14 29 15 133 13 908
l-3 874 -25 27 c-47 50 -398 245 -440 245 -8 -1 -29 -7 -47 -15z"/>
<path d="M1799 5306 c-106 -48 -291 -159 -339 -205 l-40 -38 0 -386 0 -386 53
-61 c117 -138 145 -195 132 -274 -10 -57 -28 -89 -90 -156 -89 -97 -110 -165
-100 -315 l7 -90 166 -164 c92 -90 175 -175 184 -190 44 -65 12 -117 -189
-310 l-158 -151 -3 -170 -3 -169 65 -69 c85 -91 116 -153 116 -231 0 -81 -8
-99 -88 -183 -41 -43 -75 -89 -83 -113 -19 -54 -20 -766 -2 -807 14 -30 80
-77 238 -168 186 -107 224 -117 281 -78 61 42 58 -8 58 871 l1 808 151 148
c83 81 164 167 180 191 l29 43 3 241 c2 133 1 275 -3 316 l-7 75 -163 160
c-90 88 -170 172 -180 187 -15 24 -16 94 -15 805 1 497 -2 792 -9 818 -12 47
-52 85 -89 85 -15 0 -61 -16 -103 -34z"/>
<path d="M3627 5320 c-15 -12 -31 -38 -37 -58 -7 -24 -10 -303 -10 -802 0
-528 -3 -777 -11 -805 -9 -31 -45 -73 -180 -207 -92 -92 -171 -178 -174 -191
-4 -12 -5 -151 -3 -308 l3 -284 30 -53 c20 -36 79 -101 182 -199 l152 -145 3
-811 c3 -677 5 -816 17 -837 40 -70 86 -68 238 11 145 75 275 160 297 194 22
33 34 340 26 620 -7 218 -7 219 -99 317 -74 80 -91 114 -91 181 0 66 24 112
99 194 81 88 91 115 91 266 0 93 -4 138 -16 165 -10 24 -80 101 -200 217 -101
100 -184 187 -184 195 0 8 81 93 180 191 216 212 219 218 220 373 0 131 -10
157 -99 260 -123 141 -121 241 7 379 33 35 65 74 72 86 32 60 34 748 2 803
-23 39 -260 191 -389 248 -58 25 -93 25 -126 0z"/>
<path d="M4363 4910 c-73 -54 -75 -63 -71 -345 4 -288 0 -275 103 -382 78 -81
98 -121 98 -193 0 -72 -21 -116 -101 -202 -94 -103 -102 -124 -102 -297 l0
-144 -149 -152 c-169 -173 -186 -195 -177 -229 3 -13 64 -80 135 -148 202
-194 185 -161 192 -362 6 -203 12 -220 103 -314 139 -146 140 -246 1 -391 -41
-42 -80 -90 -86 -107 -18 -40 -25 -505 -9 -562 13 -50 41 -78 92 -94 35 -10
43 -8 170 56 170 85 284 165 306 214 14 33 16 111 16 687 0 358 -3 667 -7 688
-6 27 -29 59 -83 118 -86 91 -104 127 -104 201 1 72 26 122 94 188 31 29 66
74 79 100 l22 45 0 670 c-1 634 -2 672 -19 701 -28 46 -245 184 -401 254 l-63
28 -39 -28z"/>
<path d="M1015 4862 c-148 -78 -259 -148 -293 -184 -37 -40 -42 -156 -39 -798
4 -675 -3 -629 106 -735 136 -132 137 -234 5 -376 -119 -126 -108 -60 -111
-705 -3 -635 3 -792 33 -825 49 -56 355 -234 438 -255 41 -10 103 35 113 83
10 49 10 517 0 566 -6 27 -29 60 -83 118 -42 44 -82 96 -90 114 -36 87 -4 183
100 293 79 84 86 108 86 321 l0 134 56 68 c30 37 81 91 112 120 31 28 87 81
125 116 l67 65 -137 132 c-75 72 -157 156 -183 187 l-47 56 5 125 c6 167 -8
217 -86 301 -147 159 -149 255 -8 405 44 48 69 83 77 113 14 49 20 505 7 549
-9 28 -77 80 -105 80 -10 0 -76 -31 -148 -68z"/>
<path d="M398 4500 c-45 -13 -102 -50 -128 -83 l-25 -31 -3 -1381 c-2 -759 0
-1403 3 -1432 8 -70 39 -112 104 -145 89 -45 145 -37 187 26 18 28 19 55 19
600 -1 657 7 600 -103 720 -79 85 -97 125 -89 202 6 59 38 113 107 179 59 56
71 85 81 203 13 148 3 1061 -11 1094 -22 48 -79 67 -142 48z"/>
<path d="M5068 4485 c-41 -23 -43 -56 -43 -660 l0 -550 24 -45 c12 -25 47 -70
76 -100 68 -72 85 -107 85 -172 -1 -70 -26 -123 -95 -198 -94 -102 -88 -64
-93 -653 -5 -596 -2 -638 38 -679 65 -65 230 0 270 106 14 38 14 2782 0 2836
-26 96 -176 161 -262 115z"/>
<path d="M2540 3233 c-14 -3 -28 -10 -32 -17 -11 -17 -9 -508 2 -526 11 -18
535 -29 553 -11 22 22 17 524 -6 547 -8 8 -483 15 -517 7z"/>
<path d="M2454 2518 c-66 -51 -275 -253 -296 -287 l-23 -36 -3 -848 c-2 -600
1 -860 9 -889 14 -53 45 -82 177 -163 l106 -65 142 0 142 0 6 31 c8 42 8 780
0 897 l-7 91 -54 58 c-78 85 -111 135 -123 189 -19 84 0 132 95 234 91 100 90
92 90 475 l0 330 -116 3 c-107 2 -118 1 -145 -20z"/>
<path d="M2888 2529 c-38 -14 -41 -49 -36 -377 5 -324 4 -319 107 -427 128
-135 123 -243 -19 -399 -34 -37 -66 -80 -72 -94 -13 -33 -23 -850 -11 -937 l8
-60 137 -3 c156 -3 155 -3 302 93 92 59 120 88 130 129 4 15 7 408 6 873 0
731 -2 850 -16 881 -9 23 -70 92 -158 178 -135 133 -145 141 -191 147 -67 10
-155 7 -187 -4z"/>
</g></svg>