<svg xmlns="http://www.w3.org/2000/svg" viewBox="0 0 1520 1040" preserveAspectRatio="xMidYMid slice" style="position:absolute;inset:0;width:100%;height:100%"><g><path d="M1010,520 L1250,520 L1250,760 L1450,760 L1450,1000 L1610,1000" fill="none" stroke="#2f6df6" stroke-width="3" opacity=".24" id="r0"/><path d="M1005,572 L1165,572 L1165,692 L1285,692 L1285,892 L1525,892" fill="none" stroke="#2f6df6" stroke-width="3" opacity=".24" id="r1"/><path d="M988,622 L1108,622 L1108,862 L1348,862 L1348,1102" fill="none" stroke="#2f6df6" stroke-width="3" opacity=".24" id="r2"/><path d="M962,667 L1162,667 L1162,787 L1322,787 L1322,907" fill="none" stroke="#2f6df6" stroke-width="3" opacity=".24" id="r3"/><path d="M927,706 L927,946 L1167,946 L1167,1106" fill="none" stroke="#2f6df6" stroke-width="3" opacity=".24" id="r4"/><path d="M885,737 L885,857 L1045,857 L1045,1017 L1165,1017 L1165,1137" fill="none" stroke="#2f6df6" stroke-width="3" opacity=".24" id="r5"/><path d="M837,758 L837,918 L1077,918 L1077,1118" fill="none" stroke="#2f6df6" stroke-width="3" opacity=".24" id="r6"/><path d="M786,769 L786,1009 L986,1009 L986,1129" fill="none" stroke="#2f6df6" stroke-width="3" opacity=".24" id="r7"/><path d="M734,769 L734,889 L494,889 L494,1009 L334,1009 L334,1209" fill="none" stroke="#2f6df6" stroke-width="3" opacity=".24" id="r8"/><path d="M683,758 L683,958 L483,958 L483,1158" fill="none" stroke="#2f6df6" stroke-width="3" opacity=".24" id="r9"/><path d="M635,737 L635,857 L475,857 L475,1097" fill="none" stroke="#2f6df6" stroke-width="3" opacity=".24" id="r10"/><path d="M593,706 L593,946 L433,946 L433,1066" fill="none" stroke="#2f6df6" stroke-width="3" opacity=".24" id="r11"/><path d="M558,667 L398,667 L398,827 L278,827 L278,1067" fill="none" stroke="#2f6df6" stroke-width="3" opacity=".24" id="r12"/><path d="M532,622 L412,622 L412,822 L212,822 L212,942 L-28,942" fill="none" stroke="#2f6df6" stroke-width="3" opacity=".24" id="r13"/><path d="M515,572 L355,572 L355,812 L235,812 L235,1012 L75,1012" fill="none" stroke="#2f6df6" stroke-width="3" opacity=".24" id="r14"/><path d="M510,520 L350,520 L350,720 L190,720 L190,920" fill="none" stroke="#2f6df6" stroke-width="3" opacity=".24" id="r15"/><path d="M515,468 L315,468 L315,308 L115,308 L115,148 L-5,148" fill="none" stroke="#2f6df6" stroke-width="3" opacity=".24" id="r16"/><path d="M532,418 L332,418 L332,258 L92,258 L92,58 L-148,58" fill="none" stroke="#2f6df6" stroke-width="3" opacity=".24" id="r17"/><path d="M558,373 L438,373 L438,133 L318,133 L318,-27" fill="none" stroke="#2f6df6" stroke-width="3" opacity=".24" id="r18"/><path d="M593,334 L593,134 L433,134 L433,-66" fill="none" stroke="#2f6df6" stroke-width="3" opacity=".24" id="r19"/><path d="M635,303 L635,143 L475,143 L475,-17" fill="none" stroke="#2f6df6" stroke-width="3" opacity=".24" id="r20"/><path d="M683,282 L683,162 L563,162 L563,-78" fill="none" stroke="#2f6df6" stroke-width="3" opacity=".24" id="r21"/><path d="M734,271 L734,111 L534,111 L534,-89" fill="none" stroke="#2f6df6" stroke-width="3" opacity=".24" id="r22"/><path d="M786,271 L786,31 L906,31 L906,-89" fill="none" stroke="#2f6df6" stroke-width="3" opacity=".24" id="r23"/><path d="M837,282 L837,82 L997,82 L997,-38" fill="none" stroke="#2f6df6" stroke-width="3" opacity=".24" id="r24"/><path d="M885,303 L885,103 L1125,103 L1125,-17" fill="none" stroke="#2f6df6" stroke-width="3" opacity=".24" id="r25"/><path d="M927,334 L927,214 L1167,214 L1167,-26" fill="none" stroke="#2f6df6" stroke-width="3" opacity=".24" id="r26"/><path d="M962,373 L1082,373 L1082,253 L1322,253 L1322,133 L1482,133" fill="none" stroke="#2f6df6" stroke-width="3" opacity=".24" id="r27"/><path d="M988,418 L1228,418 L1228,258 L1468,258 L1468,18 L1668,18" fill="none" stroke="#2f6df6" stroke-width="3" opacity=".24" id="r28"/><path d="M1005,468 L1125,468 L1125,228 L1285,228 L1285,-12" fill="none" stroke="#2f6df6" stroke-width="3" opacity=".24" id="r29"/><path d="M1009,546 L1209,546 L1209,706 L1449,706 L1449,946 L1689,946" fill="none" stroke="#2f6df6" stroke-width="3" opacity=".24" id="r30"/><path d="M977,645 L1137,645 L1137,845 L1297,845 L1297,1045" fill="none" stroke="#2f6df6" stroke-width="3" opacity=".24" id="r31"/><path d="M907,722 L907,842 L1107,842 L1107,1082" fill="none" stroke="#2f6df6" stroke-width="3" opacity=".24" id="r32"/><path d="M812,765 L812,1005 L972,1005 L972,1205" fill="none" stroke="#2f6df6" stroke-width="3" opacity=".24" id="r33"/><path d="M708,765 L708,885 L508,885 L508,1085" fill="none" stroke="#2f6df6" stroke-width="3" opacity=".24" id="r34"/><path d="M613,722 L613,882 L413,882 L413,1122" fill="none" stroke="#2f6df6" stroke-width="3" opacity=".24" id="r35"/><path d="M543,645 L343,645 L343,805 L103,805 L103,1005 L-17,1005" fill="none" stroke="#2f6df6" stroke-width="3" opacity=".24" id="r36"/><path d="M511,546 L391,546 L391,666 L271,666 L271,906 L31,906 L31,1146" fill="none" stroke="#2f6df6" stroke-width="3" opacity=".24" id="r37"/><path d="M522,443 L322,443 L322,283 L82,283 L82,83" fill="none" stroke="#2f6df6" stroke-width="3" opacity=".24" id="r38"/><path d="M574,353 L454,353 L454,153 L294,153 L294,-87" fill="none" stroke="#2f6df6" stroke-width="3" opacity=".24" id="r39"/><path d="M658,292 L658,172 L538,172 L538,52 L298,52 L298,-108" fill="none" stroke="#2f6df6" stroke-width="3" opacity=".24" id="r40"/><path d="M760,270 L760,30 L560,30 L560,-130" fill="none" stroke="#2f6df6" stroke-width="3" opacity=".24" id="r41"/><path d="M862,292 L862,172 L982,172 L982,12 L1102,12" fill="none" stroke="#2f6df6" stroke-width="3" opacity=".24" id="r42"/><path d="M946,353 L1106,353 L1106,233 L1346,233 L1346,33" fill="none" stroke="#2f6df6" stroke-width="3" opacity=".24" id="r43"/><path d="M998,443 L1158,443 L1158,243 L1358,243 L1358,3" fill="none" stroke="#2f6df6" stroke-width="3" opacity=".24" id="r44"/><circle cx="1610" cy="1000" r="6" fill="#2f6df6" opacity=".3"/><rect x="1519" y="886" width="12" height="12" fill="#2f6df6" opacity=".3"/><rect x="1342" y="1096" width="12" height="12" fill="#2f6df6" opacity=".3"/><rect x="1316" y="901" width="12" height="12" fill="#2f6df6" opacity=".3"/><rect x="1161" y="1100" width="12" height="12" fill="#2f6df6" opacity=".3"/><circle cx="1165" cy="1137" r="6" fill="#2f6df6" opacity=".3"/><rect x="1071" y="1112" width="12" height="12" fill="#2f6df6" opacity=".3"/><circle cx="986" cy="1129" r="6" fill="#2f6df6" opacity=".3"/><circle cx="334" cy="1209" r="6" fill="#2f6df6" opacity=".3"/><circle cx="483" cy="1158" r="6" fill="#2f6df6" opacity=".3"/><rect x="469" y="1091" width="12" height="12" fill="#2f6df6" opacity=".3"/><circle cx="433" cy="1066" r="6" fill="#2f6df6" opacity=".3"/><circle cx="278" cy="1067" r="6" fill="#2f6df6" opacity=".3"/><rect x="-34" y="936" width="12" height="12" fill="#2f6df6" opacity=".3"/><circle cx="75" cy="1012" r="6" fill="#2f6df6" opacity=".3"/><circle cx="190" cy="920" r="6" fill="#2f6df6" opacity=".3"/><rect x="-11" y="142" width="12" height="12" fill="#2f6df6" opacity=".3"/><circle cx="-148" cy="58" r="6" fill="#2f6df6" opacity=".3"/><rect x="312" y="-33" width="12" height="12" fill="#2f6df6" opacity=".3"/><circle cx="433" cy="-66" r="6" fill="#2f6df6" opacity=".3"/><circle cx="475" cy="-17" r="6" fill="#2f6df6" opacity=".3"/><circle cx="563" cy="-78" r="6" fill="#2f6df6" opacity=".3"/><circle cx="534" cy="-89" r="6" fill="#2f6df6" opacity=".3"/><circle cx="906" cy="-89" r="6" fill="#2f6df6" opacity=".3"/><circle cx="997" cy="-38" r="6" fill="#2f6df6" opacity=".3"/><circle cx="1125" cy="-17" r="6" fill="#2f6df6" opacity=".3"/><circle cx="1167" cy="-26" r="6" fill="#2f6df6" opacity=".3"/><rect x="1476" y="127" width="12" height="12" fill="#2f6df6" opacity=".3"/><circle cx="1668" cy="18" r="6" fill="#2f6df6" opacity=".3"/><rect x="1279" y="-18" width="12" height="12" fill="#2f6df6" opacity=".3"/><rect x="1683" y="940" width="12" height="12" fill="#2f6df6" opacity=".3"/><circle cx="1297" cy="1045" r="6" fill="#2f6df6" opacity=".3"/><circle cx="1107" cy="1082" r="6" fill="#2f6df6" opacity=".3"/><rect x="966" y="1199" width="12" height="12" fill="#2f6df6" opacity=".3"/><circle cx="508" cy="1085" r="6" fill="#2f6df6" opacity=".3"/><rect x="407" y="1116" width="12" height="12" fill="#2f6df6" opacity=".3"/><rect x="-23" y="999" width="12" height="12" fill="#2f6df6" opacity=".3"/><rect x="25" y="1140" width="12" height="12" fill="#2f6df6" opacity=".3"/><circle cx="82" cy="83" r="6" fill="#2f6df6" opacity=".3"/><circle cx="294" cy="-87" r="6" fill="#2f6df6" opacity=".3"/><rect x="292" y="-114" width="12" height="12" fill="#2f6df6" opacity=".3"/><rect x="554" y="-136" width="12" height="12" fill="#2f6df6" opacity=".3"/><circle cx="1102" cy="12" r="6" fill="#2f6df6" opacity=".3"/><circle cx="1346" cy="33" r="6" fill="#2f6df6" opacity=".3"/><rect x="1352" y="-3" width="12" height="12" fill="#2f6df6" opacity=".3"/></g><g><circle r="5.5" fill="#8fe0ff"><animateMotion dur="4.4s" begin="4.3s" repeatCount="indefinite"><mpath href="#r0"/></animateMotion></circle><circle r="5.5" fill="#8fe0ff"><animateMotion dur="5.4s" begin="1.0s" repeatCount="indefinite"><mpath href="#r1"/></animateMotion></circle><circle r="5.5" fill="#8fe0ff"><animateMotion dur="4.0s" begin="2.2s" repeatCount="indefinite"><mpath href="#r2"/></animateMotion></circle><circle r="5.5" fill="#8fe0ff"><animateMotion dur="5.8s" begin="2.0s" repeatCount="indefinite"><mpath href="#r3"/></animateMotion></circle><circle r="5.5" fill="#8fe0ff"><animateMotion dur="3.1s" begin="3.9s" repeatCount="indefinite"><mpath href="#r4"/></animateMotion></circle><circle r="5.5" fill="#8fe0ff"><animateMotion dur="4.7s" begin="1.7s" repeatCount="indefinite"><mpath href="#r5"/></animateMotion></circle><circle r="5.5" fill="#8fe0ff"><animateMotion dur="4.4s" begin="1.7s" repeatCount="indefinite"><mpath href="#r6"/></animateMotion></circle><circle r="5.5" fill="#8fe0ff"><animateMotion dur="3.5s" begin="3.2s" repeatCount="indefinite"><mpath href="#r7"/></animateMotion></circle><circle r="5.5" fill="#8fe0ff"><animateMotion dur="4.9s" begin="0.8s" repeatCount="indefinite"><mpath href="#r8"/></animateMotion></circle><circle r="5.5" fill="#8fe0ff"><animateMotion dur="5.8s" begin="1.1s" repeatCount="indefinite"><mpath href="#r9"/></animateMotion></circle><circle r="5.5" fill="#8fe0ff"><animateMotion dur="5.1s" begin="3.0s" repeatCount="indefinite"><mpath href="#r10"/></animateMotion></circle><circle r="5.5" fill="#8fe0ff"><animateMotion dur="4.5s" begin="1.7s" repeatCount="indefinite"><mpath href="#r11"/></animateMotion></circle><circle r="5.5" fill="#8fe0ff"><animateMotion dur="5.3s" begin="2.2s" repeatCount="indefinite"><mpath href="#r12"/></animateMotion></circle><circle r="5.5" fill="#8fe0ff"><animateMotion dur="4.2s" begin="3.9s" repeatCount="indefinite"><mpath href="#r13"/></animateMotion></circle><circle r="5.5" fill="#8fe0ff"><animateMotion dur="4.6s" begin="3.3s" repeatCount="indefinite"><mpath href="#r14"/></animateMotion></circle><circle r="5.5" fill="#8fe0ff"><animateMotion dur="4.3s" begin="2.6s" repeatCount="indefinite"><mpath href="#r15"/></animateMotion></circle><circle r="5.5" fill="#8fe0ff"><animateMotion dur="3.4s" begin="3.2s" repeatCount="indefinite"><mpath href="#r16"/></animateMotion></circle><circle r="5.5" fill="#8fe0ff"><animateMotion dur="5.4s" begin="0.6s" repeatCount="indefinite"><mpath href="#r17"/></animateMotion></circle><circle r="5.5" fill="#8fe0ff"><animateMotion dur="4.3s" begin="0.6s" repeatCount="indefinite"><mpath href="#r18"/></animateMotion></circle><circle r="5.5" fill="#8fe0ff"><animateMotion dur="4.0s" begin="2.2s" repeatCount="indefinite"><mpath href="#r19"/></animateMotion></circle><circle r="5.5" fill="#8fe0ff"><animateMotion dur="3.6s" begin="3.3s" repeatCount="indefinite"><mpath href="#r20"/></animateMotion></circle><circle r="5.5" fill="#8fe0ff"><animateMotion dur="3.2s" begin="3.4s" repeatCount="indefinite"><mpath href="#r21"/></animateMotion></circle><circle r="5.5" fill="#8fe0ff"><animateMotion dur="3.7s" begin="0.7s" repeatCount="indefinite"><mpath href="#r22"/></animateMotion></circle><circle r="5.5" fill="#8fe0ff"><animateMotion dur="5.2s" begin="4.4s" repeatCount="indefinite"><mpath href="#r23"/></animateMotion></circle><circle r="5.5" fill="#8fe0ff"><animateMotion dur="4.0s" begin="0.9s" repeatCount="indefinite"><mpath href="#r24"/></animateMotion></circle><circle r="5.5" fill="#8fe0ff"><animateMotion dur="5.0s" begin="2.8s" repeatCount="indefinite"><mpath href="#r25"/></animateMotion></circle><circle r="5.5" fill="#8fe0ff"><animateMotion dur="4.2s" begin="1.8s" repeatCount="indefinite"><mpath href="#r26"/></animateMotion></circle><circle r="5.5" fill="#8fe0ff"><animateMotion dur="4.8s" begin="1.8s" repeatCount="indefinite"><mpath href="#r27"/></animateMotion></circle><circle r="5.5" fill="#8fe0ff"><animateMotion dur="4.9s" begin="4.3s" repeatCount="indefinite"><mpath href="#r28"/></animateMotion></circle><circle r="5.5" fill="#8fe0ff"><animateMotion dur="4.8s" begin="1.0s" repeatCount="indefinite"><mpath href="#r29"/></animateMotion></circle><circle r="5.5" fill="#8fe0ff"><animateMotion dur="4.1s" begin="2.4s" repeatCount="indefinite"><mpath href="#r30"/></animateMotion></circle><circle r="5.5" fill="#8fe0ff"><animateMotion dur="5.1s" begin="0.4s" repeatCount="indefinite"><mpath href="#r31"/></animateMotion></circle><circle r="5.5" fill="#8fe0ff"><animateMotion dur="4.4s" begin="0.5s" repeatCount="indefinite"><mpath href="#r32"/></animateMotion></circle><circle r="5.5" fill="#8fe0ff"><animateMotion dur="4.7s" begin="0.8s" repeatCount="indefinite"><mpath href="#r33"/></animateMotion></circle><circle r="5.5" fill="#8fe0ff"><animateMotion dur="5.9s" begin="4.0s" repeatCount="indefinite"><mpath href="#r34"/></animateMotion></circle><circle r="5.5" fill="#8fe0ff"><animateMotion dur="4.2s" begin="1.8s" repeatCount="indefinite"><mpath href="#r35"/></animateMotion></circle><circle r="5.5" fill="#8fe0ff"><animateMotion dur="5.9s" begin="0.2s" repeatCount="indefinite"><mpath href="#r36"/></animateMotion></circle><circle r="5.5" fill="#8fe0ff"><animateMotion dur="3.0s" begin="2.4s" repeatCount="indefinite"><mpath href="#r37"/></animateMotion></circle><circle r="5.5" fill="#8fe0ff"><animateMotion dur="4.1s" begin="0.6s" repeatCount="indefinite"><mpath href="#r38"/></animateMotion></circle><circle r="5.5" fill="#8fe0ff"><animateMotion dur="4.7s" begin="1.0s" repeatCount="indefinite"><mpath href="#r39"/></animateMotion></circle><circle r="5.5" fill="#8fe0ff"><animateMotion dur="4.5s" begin="2.4s" repeatCount="indefinite"><mpath href="#r40"/></animateMotion></circle><circle r="5.5" fill="#8fe0ff"><animateMotion dur="4.1s" begin="1.3s" repeatCount="indefinite"><mpath href="#r41"/></animateMotion></circle><circle r="5.5" fill="#8fe0ff"><animateMotion dur="3.6s" begin="1.2s" repeatCount="indefinite"><mpath href="#r42"/></animateMotion></circle><circle r="5.5" fill="#8fe0ff"><animateMotion dur="5.0s" begin="0.7s" repeatCount="indefinite"><mpath href="#r43"/></animateMotion></circle><circle r="5.5" fill="#8fe0ff"><animateMotion dur="3.6s" begin="4.3s" repeatCount="indefinite"><mpath href="#r44"/></animateMotion></circle></g></svg>