<svg xmlns="http://www.w3.org/2000/svg" viewBox="0 0 760 460" fill="none" stroke="#2997ff" stroke-width="1"><path d="M0.0,-26.0 L-13.0,-3.5 L-39.0,-3.5 L-52.0,-26.0 L-39.0,-48.5 L-13.0,-48.5 Z"/><path d="M0.0,19.0 L-13.0,41.5 L-39.0,41.5 L-52.0,19.0 L-39.0,-3.5 L-13.0,-3.5 Z"/><path d="M0.0,64.1 L-13.0,86.6 L-39.0,86.6 L-52.0,64.1 L-39.0,41.5 L-13.0,41.5 Z"/><path d="M0.0,109.1 L-13.0,131.6 L-39.0,131.6 L-52.0,109.1 L-39.0,86.6 L-13.0,86.6 Z"/><path d="M0.0,154.1 L-13.0,176.6 L-39.0,176.6 L-52.0,154.1 L-39.0,131.6 L-13.0,131.6 Z"/><path d="M0.0,199.2 L-13.0,221.7 L-39.0,221.7 L-52.0,199.2 L-39.0,176.6 L-13.0,176.6 Z"/><path d="M0.0,244.2 L-13.0,266.7 L-39.0,266.7 L-52.0,244.2 L-39.0,221.7 L-13.0,221.7 Z"/><path d="M0.0,289.2 L-13.0,311.7 L-39.0,311.7 L-52.0,289.2 L-39.0,266.7 L-13.0,266.7 Z"/><path d="M0.0,334.3 L-13.0,356.8 L-39.0,356.8 L-52.0,334.3 L-39.0,311.7 L-13.0,311.7 Z"/><path d="M0.0,379.3 L-13.0,401.8 L-39.0,401.8 L-52.0,379.3 L-39.0,356.8 L-13.0,356.8 Z"/><path d="M0.0,424.3 L-13.0,446.8 L-39.0,446.8 L-52.0,424.3 L-39.0,401.8 L-13.0,401.8 Z"/><path d="M0.0,469.4 L-13.0,491.9 L-39.0,491.9 L-52.0,469.4 L-39.0,446.8 L-13.0,446.8 Z"/><path d="M39.0,-3.5 L26.0,19.0 L0.0,19.0 L-13.0,-3.5 L-0.0,-26.0 L26.0,-26.0 Z"/><path d="M39.0,41.5 L26.0,64.1 L0.0,64.1 L-13.0,41.5 L-0.0,19.0 L26.0,19.0 Z"/><path d="M39.0,86.6 L26.0,109.1 L0.0,109.1 L-13.0,86.6 L-0.0,64.1 L26.0,64.1 Z"/><path d="M39.0,131.6 L26.0,154.1 L0.0,154.1 L-13.0,131.6 L-0.0,109.1 L26.0,109.1 Z"/><path d="M39.0,176.6 L26.0,199.2 L0.0,199.2 L-13.0,176.6 L-0.0,154.1 L26.0,154.1 Z"/><path d="M39.0,221.7 L26.0,244.2 L0.0,244.2 L-13.0,221.7 L-0.0,199.2 L26.0,199.2 Z"/><path d="M39.0,266.7 L26.0,289.2 L0.0,289.2 L-13.0,266.7 L-0.0,244.2 L26.0,244.2 Z"/><path d="M39.0,311.7 L26.0,334.3 L0.0,334.3 L-13.0,311.7 L-0.0,289.2 L26.0,289.2 Z"/><path d="M39.0,356.8 L26.0,379.3 L0.0,379.3 L-13.0,356.8 L-0.0,334.3 L26.0,334.3 Z"/><path d="M39.0,401.8 L26.0,424.3 L0.0,424.3 L-13.0,401.8 L-0.0,379.3 L26.0,379.3 Z"/><path d="M39.0,446.8 L26.0,469.4 L0.0,469.4 L-13.0,446.8 L-0.0,424.3 L26.0,424.3 Z"/><path d="M78.0,-26.0 L65.0,-3.5 L39.0,-3.5 L26.0,-26.0 L39.0,-48.5 L65.0,-48.5 Z"/><path d="M78.0,19.0 L65.0,41.5 L39.0,41.5 L26.0,19.0 L39.0,-3.5 L65.0,-3.5 Z"/><path d="M78.0,64.1 L65.0,86.6 L39.0,86.6 L26.0,64.1 L39.0,41.5 L65.0,41.5 Z"/><path d="M78.0,109.1 L65.0,131.6 L39.0,131.6 L26.0,109.1 L39.0,86.6 L65.0,86.6 Z"/><path d="M78.0,154.1 L65.0,176.6 L39.0,176.6 L26.0,154.1 L39.0,131.6 L65.0,131.6 Z"/><path d="M78.0,199.2 L65.0,221.7 L39.0,221.7 L26.0,199.2 L39.0,176.6 L65.0,176.6 Z"/><path d="M78.0,244.2 L65.0,266.7 L39.0,266.7 L26.0,244.2 L39.0,221.7 L65.0,221.7 Z"/><path d="M78.0,289.2 L65.0,311.7 L39.0,311.7 L26.0,289.2 L39.0,266.7 L65.0,266.7 Z"/><path d="M78.0,334.3 L65.0,356.8 L39.0,356.8 L26.0,334.3 L39.0,311.7 L65.0,311.7 Z"/><path d="M78.0,379.3 L65.0,401.8 L39.0,401.8 L26.0,379.3 L39.0,356.8 L65.0,356.8 Z"/><path d="M78.0,424.3 L65.0,446.8 L39.0,446.8 L26.0,424.3 L39.0,401.8 L65.0,401.8 Z"/><path d="M78.0,469.4 L65.0,491.9 L39.0,491.9 L26.0,469.4 L39.0,446.8 L65.0,446.8 Z"/><path d="M117.0,-3.5 L104.0,19.0 L78.0,19.0 L65.0,-3.5 L78.0,-26.0 L104.0,-26.0 Z"/><path d="M117.0,41.5 L104.0,64.1 L78.0,64.1 L65.0,41.5 L78.0,19.0 L104.0,19.0 Z"/><path d="M117.0,86.6 L104.0,109.1 L78.0,109.1 L65.0,86.6 L78.0,64.1 L104.0,64.1 Z"/><path d="M117.0,131.6 L104.0,154.1 L78.0,154.1 L65.0,131.6 L78.0,109.1 L104.0,109.1 Z"/><path d="M117.0,176.6 L104.0,199.2 L78.0,199.2 L65.0,176.6 L78.0,154.1 L104.0,154.1 Z"/><path d="M117.0,221.7 L104.0,244.2 L78.0,244.2 L65.0,221.7 L78.0,199.2 L104.0,199.2 Z"/><path d="M117.0,266.7 L104.0,289.2 L78.0,289.2 L65.0,266.7 L78.0,244.2 L104.0,244.2 Z"/><path d="M117.0,311.7 L104.0,334.3 L78.0,334.3 L65.0,311.7 L78.0,289.2 L104.0,289.2 Z"/><path d="M117.0,356.8 L104.0,379.3 L78.0,379.3 L65.0,356.8 L78.0,334.3 L104.0,334.3 Z"/><path d="M117.0,401.8 L104.0,424.3 L78.0,424.3 L65.0,401.8 L78.0,379.3 L104.0,379.3 Z"/><path d="M117.0,446.8 L104.0,469.4 L78.0,469.4 L65.0,446.8 L78.0,424.3 L104.0,424.3 Z"/><path d="M156.0,-26.0 L143.0,-3.5 L117.0,-3.5 L104.0,-26.0 L117.0,-48.5 L143.0,-48.5 Z"/><path d="M156.0,19.0 L143.0,41.5 L117.0,41.5 L104.0,19.0 L117.0,-3.5 L143.0,-3.5 Z"/><path d="M156.0,64.1 L143.0,86.6 L117.0,86.6 L104.0,64.1 L117.0,41.5 L143.0,41.5 Z"/><path d="M156.0,109.1 L143.0,131.6 L117.0,131.6 L104.0,109.1 L117.0,86.6 L143.0,86.6 Z"/><path d="M156.0,154.1 L143.0,176.6 L117.0,176.6 L104.0,154.1 L117.0,131.6 L143.0,131.6 Z"/><path d="M156.0,199.2 L143.0,221.7 L117.0,221.7 L104.0,199.2 L117.0,176.6 L143.0,176.6 Z"/><path d="M156.0,244.2 L143.0,266.7 L117.0,266.7 L104.0,244.2 L117.0,221.7 L143.0,221.7 Z"/><path d="M156.0,289.2 L143.0,311.7 L117.0,311.7 L104.0,289.2 L117.0,266.7 L143.0,266.7 Z"/><path d="M156.0,334.3 L143.0,356.8 L117.0,356.8 L104.0,334.3 L117.0,311.7 L143.0,311.7 Z"/><path d="M156.0,379.3 L143.0,401.8 L117.0,401.8 L104.0,379.3 L117.0,356.8 L143.0,356.8 Z"/><path d="M156.0,424.3 L143.0,446.8 L117.0,446.8 L104.0,424.3 L117.0,401.8 L143.0,401.8 Z"/><path d="M156.0,469.4 L143.0,491.9 L117.0,491.9 L104.0,469.4 L117.0,446.8 L143.0,446.8 Z"/><path d="M195.0,-3.5 L182.0,19.0 L156.0,19.0 L143.0,-3.5 L156.0,-26.0 L182.0,-26.0 Z"/><path d="M195.0,41.5 L182.0,64.1 L156.0,64.1 L143.0,41.5 L156.0,19.0 L182.0,19.0 Z"/><path d="M195.0,86.6 L182.0,109.1 L156.0,109.1 L143.0,86.6 L156.0,64.1 L182.0,64.1 Z"/><path d="M195.0,131.6 L182.0,154.1 L156.0,154.1 L143.0,131.6 L156.0,109.1 L182.0,109.1 Z"/><path d="M195.0,176.6 L182.0,199.2 L156.0,199.2 L143.0,176.6 L156.0,154.1 L182.0,154.1 Z"/><path d="M195.0,221.7 L182.0,244.2 L156.0,244.2 L143.0,221.7 L156.0,199.2 L182.0,199.2 Z"/><path d="M195.0,266.7 L182.0,289.2 L156.0,289.2 L143.0,266.7 L156.0,244.2 L182.0,244.2 Z"/><path d="M195.0,311.7 L182.0,334.3 L156.0,334.3 L143.0,311.7 L156.0,289.2 L182.0,289.2 Z"/><path d="M195.0,356.8 L182.0,379.3 L156.0,379.3 L143.0,356.8 L156.0,334.3 L182.0,334.3 Z"/><path d="M195.0,401.8 L182.0,424.3 L156.0,424.3 L143.0,401.8 L156.0,379.3 L182.0,379.3 Z"/><path d="M195.0,446.8 L182.0,469.4 L156.0,469.4 L143.0,446.8 L156.0,424.3 L182.0,424.3 Z"/><path d="M234.0,-26.0 L221.0,-3.5 L195.0,-3.5 L182.0,-26.0 L195.0,-48.5 L221.0,-48.5 Z"/><path d="M234.0,19.0 L221.0,41.5 L195.0,41.5 L182.0,19.0 L195.0,-3.5 L221.0,-3.5 Z"/><path d="M234.0,64.1 L221.0,86.6 L195.0,86.6 L182.0,64.1 L195.0,41.5 L221.0,41.5 Z"/><path d="M234.0,109.1 L221.0,131.6 L195.0,131.6 L182.0,109.1 L195.0,86.6 L221.0,86.6 Z"/><path d="M234.0,154.1 L221.0,176.6 L195.0,176.6 L182.0,154.1 L195.0,131.6 L221.0,131.6 Z"/><path d="M234.0,199.2 L221.0,221.7 L195.0,221.7 L182.0,199.2 L195.0,176.6 L221.0,176.6 Z"/><path d="M234.0,244.2 L221.0,266.7 L195.0,266.7 L182.0,244.2 L195.0,221.7 L221.0,221.7 Z"/><path d="M234.0,289.2 L221.0,311.7 L195.0,311.7 L182.0,289.2 L195.0,266.7 L221.0,266.7 Z"/><path d="M234.0,334.3 L221.0,356.8 L195.0,356.8 L182.0,334.3 L195.0,311.7 L221.0,311.7 Z"/><path d="M234.0,379.3 L221.0,401.8 L195.0,401.8 L182.0,379.3 L195.0,356.8 L221.0,356.8 Z"/><path d="M234.0,424.3 L221.0,446.8 L195.0,446.8 L182.0,424.3 L195.0,401.8 L221.0,401.8 Z"/><path d="M234.0,469.4 L221.0,491.9 L195.0,491.9 L182.0,469.4 L195.0,446.8 L221.0,446.8 Z"/><path d="M273.0,-3.5 L260.0,19.0 L234.0,19.0 L221.0,-3.5 L234.0,-26.0 L260.0,-26.0 Z"/><path d="M273.0,41.5 L260.0,64.1 L234.0,64.1 L221.0,41.5 L234.0,19.0 L260.0,19.0 Z"/><path d="M273.0,86.6 L260.0,109.1 L234.0,109.1 L221.0,86.6 L234.0,64.1 L260.0,64.1 Z"/><path d="M273.0,131.6 L260.0,154.1 L234.0,154.1 L221.0,131.6 L234.0,109.1 L260.0,109.1 Z"/><path d="M273.0,176.6 L260.0,199.2 L234.0,199.2 L221.0,176.6 L234.0,154.1 L260.0,154.1 Z"/><path d="M273.0,221.7 L260.0,244.2 L234.0,244.2 L221.0,221.7 L234.0,199.2 L260.0,199.2 Z"/><path d="M273.0,266.7 L260.0,289.2 L234.0,289.2 L221.0,266.7 L234.0,244.2 L260.0,244.2 Z"/><path d="M273.0,311.7 L260.0,334.3 L234.0,334.3 L221.0,311.7 L234.0,289.2 L260.0,289.2 Z"/><path d="M273.0,356.8 L260.0,379.3 L234.0,379.3 L221.0,356.8 L234.0,334.3 L260.0,334.3 Z"/><path d="M273.0,401.8 L260.0,424.3 L234.0,424.3 L221.0,401.8 L234.0,379.3 L260.0,379.3 Z"/><path d="M273.0,446.8 L260.0,469.4 L234.0,469.4 L221.0,446.8 L234.0,424.3 L260.0,424.3 Z"/><path d="M312.0,-26.0 L299.0,-3.5 L273.0,-3.5 L260.0,-26.0 L273.0,-48.5 L299.0,-48.5 Z"/><path d="M312.0,19.0 L299.0,41.5 L273.0,41.5 L260.0,19.0 L273.0,-3.5 L299.0,-3.5 Z"/><path d="M312.0,64.1 L299.0,86.6 L273.0,86.6 L260.0,64.1 L273.0,41.5 L299.0,41.5 Z"/><path d="M312.0,109.1 L299.0,131.6 L273.0,131.6 L260.0,109.1 L273.0,86.6 L299.0,86.6 Z"/><path d="M312.0,154.1 L299.0,176.6 L273.0,176.6 L260.0,154.1 L273.0,131.6 L299.0,131.6 Z"/><path d="M312.0,199.2 L299.0,221.7 L273.0,221.7 L260.0,199.2 L273.0,176.6 L299.0,176.6 Z"/><path d="M312.0,244.2 L299.0,266.7 L273.0,266.7 L260.0,244.2 L273.0,221.7 L299.0,221.7 Z"/><path d="M312.0,289.2 L299.0,311.7 L273.0,311.7 L260.0,289.2 L273.0,266.7 L299.0,266.7 Z"/><path d="M312.0,334.3 L299.0,356.8 L273.0,356.8 L260.0,334.3 L273.0,311.7 L299.0,311.7 Z"/><path d="M312.0,379.3 L299.0,401.8 L273.0,401.8 L260.0,379.3 L273.0,356.8 L299.0,356.8 Z"/><path d="M312.0,424.3 L299.0,446.8 L273.0,446.8 L260.0,424.3 L273.0,401.8 L299.0,401.8 Z"/><path d="M312.0,469.4 L299.0,491.9 L273.0,491.9 L260.0,469.4 L273.0,446.8 L299.0,446.8 Z"/><path d="M351.0,-3.5 L338.0,19.0 L312.0,19.0 L299.0,-3.5 L312.0,-26.0 L338.0,-26.0 Z"/><path d="M351.0,41.5 L338.0,64.1 L312.0,64.1 L299.0,41.5 L312.0,19.0 L338.0,19.0 Z"/><path d="M351.0,86.6 L338.0,109.1 L312.0,109.1 L299.0,86.6 L312.0,64.1 L338.0,64.1 Z"/><path d="M351.0,131.6 L338.0,154.1 L312.0,154.1 L299.0,131.6 L312.0,109.1 L338.0,109.1 Z"/><path d="M351.0,176.6 L338.0,199.2 L312.0,199.2 L299.0,176.6 L312.0,154.1 L338.0,154.1 Z"/><path d="M351.0,221.7 L338.0,244.2 L312.0,244.2 L299.0,221.7 L312.0,199.2 L338.0,199.2 Z"/><path d="M351.0,266.7 L338.0,289.2 L312.0,289.2 L299.0,266.7 L312.0,244.2 L338.0,244.2 Z"/><path d="M351.0,311.7 L338.0,334.3 L312.0,334.3 L299.0,311.7 L312.0,289.2 L338.0,289.2 Z"/><path d="M351.0,356.8 L338.0,379.3 L312.0,379.3 L299.0,356.8 L312.0,334.3 L338.0,334.3 Z"/><path d="M351.0,401.8 L338.0,424.3 L312.0,424.3 L299.0,401.8 L312.0,379.3 L338.0,379.3 Z"/><path d="M351.0,446.8 L338.0,469.4 L312.0,469.4 L299.0,446.8 L312.0,424.3 L338.0,424.3 Z"/><path d="M390.0,-26.0 L377.0,-3.5 L351.0,-3.5 L338.0,-26.0 L351.0,-48.5 L377.0,-48.5 Z"/><path d="M390.0,19.0 L377.0,41.5 L351.0,41.5 L338.0,19.0 L351.0,-3.5 L377.0,-3.5 Z"/><path d="M390.0,64.1 L377.0,86.6 L351.0,86.6 L338.0,64.1 L351.0,41.5 L377.0,41.5 Z"/><path d="M390.0,109.1 L377.0,131.6 L351.0,131.6 L338.0,109.1 L351.0,86.6 L377.0,86.6 Z"/><path d="M390.0,154.1 L377.0,176.6 L351.0,176.6 L338.0,154.1 L351.0,131.6 L377.0,131.6 Z"/><path d="M390.0,199.2 L377.0,221.7 L351.0,221.7 L338.0,199.2 L351.0,176.6 L377.0,176.6 Z"/><path d="M390.0,244.2 L377.0,266.7 L351.0,266.7 L338.0,244.2 L351.0,221.7 L377.0,221.7 Z"/><path d="M390.0,289.2 L377.0,311.7 L351.0,311.7 L338.0,289.2 L351.0,266.7 L377.0,266.7 Z"/><path d="M390.0,334.3 L377.0,356.8 L351.0,356.8 L338.0,334.3 L351.0,311.7 L377.0,311.7 Z"/><path d="M390.0,379.3 L377.0,401.8 L351.0,401.8 L338.0,379.3 L351.0,356.8 L377.0,356.8 Z"/><path d="M390.0,424.3 L377.0,446.8 L351.0,446.8 L338.0,424.3 L351.0,401.8 L377.0,401.8 Z"/><path d="M390.0,469.4 L377.0,491.9 L351.0,491.9 L338.0,469.4 L351.0,446.8 L377.0,446.8 Z"/><path d="M429.0,-3.5 L416.0,19.0 L390.0,19.0 L377.0,-3.5 L390.0,-26.0 L416.0,-26.0 Z"/><path d="M429.0,41.5 L416.0,64.1 L390.0,64.1 L377.0,41.5 L390.0,19.0 L416.0,19.0 Z"/><path d="M429.0,86.6 L416.0,109.1 L390.0,109.1 L377.0,86.6 L390.0,64.1 L416.0,64.1 Z"/><path d="M429.0,131.6 L416.0,154.1 L390.0,154.1 L377.0,131.6 L390.0,109.1 L416.0,109.1 Z"/><path d="M429.0,176.6 L416.0,199.2 L390.0,199.2 L377.0,176.6 L390.0,154.1 L416.0,154.1 Z"/><path d="M429.0,221.7 L416.0,244.2 L390.0,244.2 L377.0,221.7 L390.0,199.2 L416.0,199.2 Z"/><path d="M429.0,266.7 L416.0,289.2 L390.0,289.2 L377.0,266.7 L390.0,244.2 L416.0,244.2 Z"/><path d="M429.0,311.7 L416.0,334.3 L390.0,334.3 L377.0,311.7 L390.0,289.2 L416.0,289.2 Z"/><path d="M429.0,356.8 L416.0,379.3 L390.0,379.3 L377.0,356.8 L390.0,334.3 L416.0,334.3 Z"/><path d="M429.0,401.8 L416.0,424.3 L390.0,424.3 L377.0,401.8 L390.0,379.3 L416.0,379.3 Z"/><path d="M429.0,446.8 L416.0,469.4 L390.0,469.4 L377.0,446.8 L390.0,424.3 L416.0,424.3 Z"/><path d="M468.0,-26.0 L455.0,-3.5 L429.0,-3.5 L416.0,-26.0 L429.0,-48.5 L455.0,-48.5 Z"/><path d="M468.0,19.0 L455.0,41.5 L429.0,41.5 L416.0,19.0 L429.0,-3.5 L455.0,-3.5 Z"/><path d="M468.0,64.1 L455.0,86.6 L429.0,86.6 L416.0,64.1 L429.0,41.5 L455.0,41.5 Z"/><path d="M468.0,109.1 L455.0,131.6 L429.0,131.6 L416.0,109.1 L429.0,86.6 L455.0,86.6 Z"/><path d="M468.0,154.1 L455.0,176.6 L429.0,176.6 L416.0,154.1 L429.0,131.6 L455.0,131.6 Z"/><path d="M468.0,199.2 L455.0,221.7 L429.0,221.7 L416.0,199.2 L429.0,176.6 L455.0,176.6 Z"/><path d="M468.0,244.2 L455.0,266.7 L429.0,266.7 L416.0,244.2 L429.0,221.7 L455.0,221.7 Z"/><path d="M468.0,289.2 L455.0,311.7 L429.0,311.7 L416.0,289.2 L429.0,266.7 L455.0,266.7 Z"/><path d="M468.0,334.3 L455.0,356.8 L429.0,356.8 L416.0,334.3 L429.0,311.7 L455.0,311.7 Z"/><path d="M468.0,379.3 L455.0,401.8 L429.0,401.8 L416.0,379.3 L429.0,356.8 L455.0,356.8 Z"/><path d="M468.0,424.3 L455.0,446.8 L429.0,446.8 L416.0,424.3 L429.0,401.8 L455.0,401.8 Z"/><path d="M468.0,469.4 L455.0,491.9 L429.0,491.9 L416.0,469.4 L429.0,446.8 L455.0,446.8 Z"/><path d="M507.0,-3.5 L494.0,19.0 L468.0,19.0 L455.0,-3.5 L468.0,-26.0 L494.0,-26.0 Z"/><path d="M507.0,41.5 L494.0,64.1 L468.0,64.1 L455.0,41.5 L468.0,19.0 L494.0,19.0 Z"/><path d="M507.0,86.6 L494.0,109.1 L468.0,109.1 L455.0,86.6 L468.0,64.1 L494.0,64.1 Z"/><path d="M507.0,131.6 L494.0,154.1 L468.0,154.1 L455.0,131.6 L468.0,109.1 L494.0,109.1 Z"/><path d="M507.0,176.6 L494.0,199.2 L468.0,199.2 L455.0,176.6 L468.0,154.1 L494.0,154.1 Z"/><path d="M507.0,221.7 L494.0,244.2 L468.0,244.2 L455.0,221.7 L468.0,199.2 L494.0,199.2 Z"/><path d="M507.0,266.7 L494.0,289.2 L468.0,289.2 L455.0,266.7 L468.0,244.2 L494.0,244.2 Z"/><path d="M507.0,311.7 L494.0,334.3 L468.0,334.3 L455.0,311.7 L468.0,289.2 L494.0,289.2 Z"/><path d="M507.0,356.8 L494.0,379.3 L468.0,379.3 L455.0,356.8 L468.0,334.3 L494.0,334.3 Z"/><path d="M507.0,401.8 L494.0,424.3 L468.0,424.3 L455.0,401.8 L468.0,379.3 L494.0,379.3 Z"/><path d="M507.0,446.8 L494.0,469.4 L468.0,469.4 L455.0,446.8 L468.0,424.3 L494.0,424.3 Z"/><path d="M546.0,-26.0 L533.0,-3.5 L507.0,-3.5 L494.0,-26.0 L507.0,-48.5 L533.0,-48.5 Z"/><path d="M546.0,19.0 L533.0,41.5 L507.0,41.5 L494.0,19.0 L507.0,-3.5 L533.0,-3.5 Z"/><path d="M546.0,64.1 L533.0,86.6 L507.0,86.6 L494.0,64.1 L507.0,41.5 L533.0,41.5 Z"/><path d="M546.0,109.1 L533.0,131.6 L507.0,131.6 L494.0,109.1 L507.0,86.6 L533.0,86.6 Z"/><path d="M546.0,154.1 L533.0,176.6 L507.0,176.6 L494.0,154.1 L507.0,131.6 L533.0,131.6 Z"/><path d="M546.0,199.2 L533.0,221.7 L507.0,221.7 L494.0,199.2 L507.0,176.6 L533.0,176.6 Z"/><path d="M546.0,244.2 L533.0,266.7 L507.0,266.7 L494.0,244.2 L507.0,221.7 L533.0,221.7 Z"/><path d="M546.0,289.2 L533.0,311.7 L507.0,311.7 L494.0,289.2 L507.0,266.7 L533.0,266.7 Z"/><path d="M546.0,334.3 L533.0,356.8 L507.0,356.8 L494.0,334.3 L507.0,311.7 L533.0,311.7 Z"/><path d="M546.0,379.3 L533.0,401.8 L507.0,401.8 L494.0,379.3 L507.0,356.8 L533.0,356.8 Z"/><path d="M546.0,424.3 L533.0,446.8 L507.0,446.8 L494.0,424.3 L507.0,401.8 L533.0,401.8 Z"/><path d="M546.0,469.4 L533.0,491.9 L507.0,491.9 L494.0,469.4 L507.0,446.8 L533.0,446.8 Z"/><path d="M585.0,-3.5 L572.0,19.0 L546.0,19.0 L533.0,-3.5 L546.0,-26.0 L572.0,-26.0 Z"/><path d="M585.0,41.5 L572.0,64.1 L546.0,64.1 L533.0,41.5 L546.0,19.0 L572.0,19.0 Z"/><path d="M585.0,86.6 L572.0,109.1 L546.0,109.1 L533.0,86.6 L546.0,64.1 L572.0,64.1 Z"/><path d="M585.0,131.6 L572.0,154.1 L546.0,154.1 L533.0,131.6 L546.0,109.1 L572.0,109.1 Z"/><path d="M585.0,176.6 L572.0,199.2 L546.0,199.2 L533.0,176.6 L546.0,154.1 L572.0,154.1 Z"/><path d="M585.0,221.7 L572.0,244.2 L546.0,244.2 L533.0,221.7 L546.0,199.2 L572.0,199.2 Z"/><path d="M585.0,266.7 L572.0,289.2 L546.0,289.2 L533.0,266.7 L546.0,244.2 L572.0,244.2 Z"/><path d="M585.0,311.7 L572.0,334.3 L546.0,334.3 L533.0,311.7 L546.0,289.2 L572.0,289.2 Z"/><path d="M585.0,356.8 L572.0,379.3 L546.0,379.3 L533.0,356.8 L546.0,334.3 L572.0,334.3 Z"/><path d="M585.0,401.8 L572.0,424.3 L546.0,424.3 L533.0,401.8 L546.0,379.3 L572.0,379.3 Z"/><path d="M585.0,446.8 L572.0,469.4 L546.0,469.4 L533.0,446.8 L546.0,424.3 L572.0,424.3 Z"/><path d="M624.0,-26.0 L611.0,-3.5 L585.0,-3.5 L572.0,-26.0 L585.0,-48.5 L611.0,-48.5 Z"/><path d="M624.0,19.0 L611.0,41.5 L585.0,41.5 L572.0,19.0 L585.0,-3.5 L611.0,-3.5 Z"/><path d="M624.0,64.1 L611.0,86.6 L585.0,86.6 L572.0,64.1 L585.0,41.5 L611.0,41.5 Z"/><path d="M624.0,109.1 L611.0,131.6 L585.0,131.6 L572.0,109.1 L585.0,86.6 L611.0,86.6 Z"/><path d="M624.0,154.1 L611.0,176.6 L585.0,176.6 L572.0,154.1 L585.0,131.6 L611.0,131.6 Z"/><path d="M624.0,199.2 L611.0,221.7 L585.0,221.7 L572.0,199.2 L585.0,176.6 L611.0,176.6 Z"/><path d="M624.0,244.2 L611.0,266.7 L585.0,266.7 L572.0,244.2 L585.0,221.7 L611.0,221.7 Z"/><path d="M624.0,289.2 L611.0,311.7 L585.0,311.7 L572.0,289.2 L585.0,266.7 L611.0,266.7 Z"/><path d="M624.0,334.3 L611.0,356.8 L585.0,356.8 L572.0,334.3 L585.0,311.7 L611.0,311.7 Z"/><path d="M624.0,379.3 L611.0,401.8 L585.0,401.8 L572.0,379.3 L585.0,356.8 L611.0,356.8 Z"/><path d="M624.0,424.3 L611.0,446.8 L585.0,446.8 L572.0,424.3 L585.0,401.8 L611.0,401.8 Z"/><path d="M624.0,469.4 L611.0,491.9 L585.0,491.9 L572.0,469.4 L585.0,446.8 L611.0,446.8 Z"/><path d="M663.0,-3.5 L650.0,19.0 L624.0,19.0 L611.0,-3.5 L624.0,-26.0 L650.0,-26.0 Z"/><path d="M663.0,41.5 L650.0,64.1 L624.0,64.1 L611.0,41.5 L624.0,19.0 L650.0,19.0 Z"/><path d="M663.0,86.6 L650.0,109.1 L624.0,109.1 L611.0,86.6 L624.0,64.1 L650.0,64.1 Z"/><path d="M663.0,131.6 L650.0,154.1 L624.0,154.1 L611.0,131.6 L624.0,109.1 L650.0,109.1 Z"/><path d="M663.0,176.6 L650.0,199.2 L624.0,199.2 L611.0,176.6 L624.0,154.1 L650.0,154.1 Z"/><path d="M663.0,221.7 L650.0,244.2 L624.0,244.2 L611.0,221.7 L624.0,199.2 L650.0,199.2 Z"/><path d="M663.0,266.7 L650.0,289.2 L624.0,289.2 L611.0,266.7 L624.0,244.2 L650.0,244.2 Z"/><path d="M663.0,311.7 L650.0,334.3 L624.0,334.3 L611.0,311.7 L624.0,289.2 L650.0,289.2 Z"/><path d="M663.0,356.8 L650.0,379.3 L624.0,379.3 L611.0,356.8 L624.0,334.3 L650.0,334.3 Z"/><path d="M663.0,401.8 L650.0,424.3 L624.0,424.3 L611.0,401.8 L624.0,379.3 L650.0,379.3 Z"/><path d="M663.0,446.8 L650.0,469.4 L624.0,469.4 L611.0,446.8 L624.0,424.3 L650.0,424.3 Z"/><path d="M702.0,-26.0 L689.0,-3.5 L663.0,-3.5 L650.0,-26.0 L663.0,-48.5 L689.0,-48.5 Z"/><path d="M702.0,19.0 L689.0,41.5 L663.0,41.5 L650.0,19.0 L663.0,-3.5 L689.0,-3.5 Z"/><path d="M702.0,64.1 L689.0,86.6 L663.0,86.6 L650.0,64.1 L663.0,41.5 L689.0,41.5 Z"/><path d="M702.0,109.1 L689.0,131.6 L663.0,131.6 L650.0,109.1 L663.0,86.6 L689.0,86.6 Z"/><path d="M702.0,154.1 L689.0,176.6 L663.0,176.6 L650.0,154.1 L663.0,131.6 L689.0,131.6 Z"/><path d="M702.0,199.2 L689.0,221.7 L663.0,221.7 L650.0,199.2 L663.0,176.6 L689.0,176.6 Z"/><path d="M702.0,244.2 L689.0,266.7 L663.0,266.7 L650.0,244.2 L663.0,221.7 L689.0,221.7 Z"/><path d="M702.0,289.2 L689.0,311.7 L663.0,311.7 L650.0,289.2 L663.0,266.7 L689.0,266.7 Z"/><path d="M702.0,334.3 L689.0,356.8 L663.0,356.8 L650.0,334.3 L663.0,311.7 L689.0,311.7 Z"/><path d="M702.0,379.3 L689.0,401.8 L663.0,401.8 L650.0,379.3 L663.0,356.8 L689.0,356.8 Z"/><path d="M702.0,424.3 L689.0,446.8 L663.0,446.8 L650.0,424.3 L663.0,401.8 L689.0,401.8 Z"/><path d="M702.0,469.4 L689.0,491.9 L663.0,491.9 L650.0,469.4 L663.0,446.8 L689.0,446.8 Z"/><path d="M741.0,-3.5 L728.0,19.0 L702.0,19.0 L689.0,-3.5 L702.0,-26.0 L728.0,-26.0 Z"/><path d="M741.0,41.5 L728.0,64.1 L702.0,64.1 L689.0,41.5 L702.0,19.0 L728.0,19.0 Z"/><path d="M741.0,86.6 L728.0,109.1 L702.0,109.1 L689.0,86.6 L702.0,64.1 L728.0,64.1 Z"/><path d="M741.0,131.6 L728.0,154.1 L702.0,154.1 L689.0,131.6 L702.0,109.1 L728.0,109.1 Z"/><path d="M741.0,176.6 L728.0,199.2 L702.0,199.2 L689.0,176.6 L702.0,154.1 L728.0,154.1 Z"/><path d="M741.0,221.7 L728.0,244.2 L702.0,244.2 L689.0,221.7 L702.0,199.2 L728.0,199.2 Z"/><path d="M741.0,266.7 L728.0,289.2 L702.0,289.2 L689.0,266.7 L702.0,244.2 L728.0,244.2 Z"/><path d="M741.0,311.7 L728.0,334.3 L702.0,334.3 L689.0,311.7 L702.0,289.2 L728.0,289.2 Z"/><path d="M741.0,356.8 L728.0,379.3 L702.0,379.3 L689.0,356.8 L702.0,334.3 L728.0,334.3 Z"/><path d="M741.0,401.8 L728.0,424.3 L702.0,424.3 L689.0,401.8 L702.0,379.3 L728.0,379.3 Z"/><path d="M741.0,446.8 L728.0,469.4 L702.0,469.4 L689.0,446.8 L702.0,424.3 L728.0,424.3 Z"/><path d="M780.0,-26.0 L767.0,-3.5 L741.0,-3.5 L728.0,-26.0 L741.0,-48.5 L767.0,-48.5 Z"/><path d="M780.0,19.0 L767.0,41.5 L741.0,41.5 L728.0,19.0 L741.0,-3.5 L767.0,-3.5 Z"/><path d="M780.0,64.1 L767.0,86.6 L741.0,86.6 L728.0,64.1 L741.0,41.5 L767.0,41.5 Z"/><path d="M780.0,109.1 L767.0,131.6 L741.0,131.6 L728.0,109.1 L741.0,86.6 L767.0,86.6 Z"/><path d="M780.0,154.1 L767.0,176.6 L741.0,176.6 L728.0,154.1 L741.0,131.6 L767.0,131.6 Z"/><path d="M780.0,199.2 L767.0,221.7 L741.0,221.7 L728.0,199.2 L741.0,176.6 L767.0,176.6 Z"/><path d="M780.0,244.2 L767.0,266.7 L741.0,266.7 L728.0,244.2 L741.0,221.7 L767.0,221.7 Z"/><path d="M780.0,289.2 L767.0,311.7 L741.0,311.7 L728.0,289.2 L741.0,266.7 L767.0,266.7 Z"/><path d="M780.0,334.3 L767.0,356.8 L741.0,356.8 L728.0,334.3 L741.0,311.7 L767.0,311.7 Z"/><path d="M780.0,379.3 L767.0,401.8 L741.0,401.8 L728.0,379.3 L741.0,356.8 L767.0,356.8 Z"/><path d="M780.0,424.3 L767.0,446.8 L741.0,446.8 L728.0,424.3 L741.0,401.8 L767.0,401.8 Z"/><path d="M780.0,469.4 L767.0,491.9 L741.0,491.9 L728.0,469.4 L741.0,446.8 L767.0,446.8 Z"/></svg>